%TF.GenerationSoftware,KiCad,Pcbnew,(6.0.0)*%
%TF.CreationDate,2022-09-05T11:49:44+02:00*%
%TF.ProjectId,micro_HIL_v0.1,6d696372-6f5f-4484-994c-5f76302e312e,rev?*%
%TF.SameCoordinates,Original*%
%TF.FileFunction,Profile,NP*%
%FSLAX46Y46*%
G04 Gerber Fmt 4.6, Leading zero omitted, Abs format (unit mm)*
G04 Created by KiCad (PCBNEW (6.0.0)) date 2022-09-05 11:49:44*
%MOMM*%
%LPD*%
G01*
G04 APERTURE LIST*
%TA.AperFunction,Profile*%
%ADD10C,0.100000*%
%TD*%
G04 APERTURE END LIST*
D10*
X347500000Y-132000000D02*
X346500000Y-132000000D01*
X344500000Y-150000000D02*
G75*
G03*
X346500000Y-152000000I1999999J-1D01*
G01*
X365000000Y-134000000D02*
X364000000Y-134000000D01*
X358000000Y-134000000D02*
X353500000Y-134000000D01*
X342500000Y-56000000D02*
X342500000Y-82500000D01*
X367000000Y-39500000D02*
G75*
G03*
X365000000Y-37500000I-1999999J1D01*
G01*
X346500000Y-37500000D02*
G75*
G03*
X344500000Y-39500000I-1J-1999999D01*
G01*
X339500000Y-37500000D02*
X60500000Y-37500000D01*
X344500000Y-130000000D02*
G75*
G03*
X346500000Y-132000000I1999999J-1D01*
G01*
X57500000Y-40500000D02*
X57500000Y-179500000D01*
X346500000Y-37500000D02*
X365000000Y-37500000D01*
X344500000Y-56000000D02*
G75*
G03*
X342500000Y-56000000I-1000000J0D01*
G01*
X60500000Y-37500000D02*
G75*
G03*
X57500000Y-40500000I1J-3000001D01*
G01*
X57500000Y-179500000D02*
G75*
G03*
X60500000Y-182500000I3000001J1D01*
G01*
X347500000Y-134000000D02*
X346500000Y-134000000D01*
X344500000Y-136000000D02*
X344500000Y-150000000D01*
X347500000Y-134000000D02*
G75*
G03*
X347500000Y-132000000I0J1000000D01*
G01*
X342500000Y-40500000D02*
G75*
G03*
X339500000Y-37500000I-3000001J-1D01*
G01*
X342500000Y-82500000D02*
G75*
G03*
X344500000Y-82500000I1000000J0D01*
G01*
X344500000Y-130000000D02*
X344500000Y-117500000D01*
X342500000Y-50000000D02*
X342500000Y-40500000D01*
X342500000Y-117500000D02*
X342500000Y-179500000D01*
X353500000Y-132000000D02*
G75*
G03*
X353500000Y-134000000I0J-1000000D01*
G01*
X365000000Y-152000000D02*
G75*
G03*
X367000000Y-150000000I1J1999999D01*
G01*
X342500000Y-88500000D02*
X342500000Y-111500000D01*
X358000000Y-134000000D02*
G75*
G03*
X358000000Y-132000000I0J1000000D01*
G01*
X364000000Y-132000000D02*
G75*
G03*
X364000000Y-134000000I0J-1000000D01*
G01*
X367000000Y-130000000D02*
X367000000Y-39500000D01*
X342500000Y-111500000D02*
G75*
G03*
X344500000Y-111500000I1000000J0D01*
G01*
X367000000Y-136000000D02*
G75*
G03*
X365000000Y-134000000I-1999999J1D01*
G01*
X344500000Y-117500000D02*
G75*
G03*
X342500000Y-117500000I-1000000J0D01*
G01*
X358000000Y-132000000D02*
X353500000Y-132000000D01*
X346500000Y-152000000D02*
X365000000Y-152000000D01*
X344500000Y-111500000D02*
X344500000Y-88500000D01*
X367000000Y-150000000D02*
X367000000Y-136000000D01*
X365000000Y-132000000D02*
G75*
G03*
X367000000Y-130000000I1J1999999D01*
G01*
X342500000Y-50000000D02*
G75*
G03*
X344500000Y-50000000I1000000J0D01*
G01*
X60500000Y-182500000D02*
X339500000Y-182500000D01*
X344500000Y-82500000D02*
X344500000Y-56000000D01*
X339500000Y-182500000D02*
G75*
G03*
X342500000Y-179500000I-1J3000001D01*
G01*
X344500000Y-50000000D02*
X344500000Y-39500000D01*
X346500000Y-134000000D02*
G75*
G03*
X344500000Y-136000000I-1J-1999999D01*
G01*
X365000000Y-132000000D02*
X364000000Y-132000000D01*
X344500000Y-88500000D02*
G75*
G03*
X342500000Y-88500000I-1000000J0D01*
G01*
X59166666Y-182500000D02*
G75*
G03*
X59166666Y-182500000I-1666666J0D01*
G01*
X55000000Y-182500000D02*
X60000000Y-182500000D01*
X57500000Y-180000000D02*
X57500000Y-185000000D01*
M02*
