M48
; DRILL file {KiCad (6.0.0)} date Mon Sep  5 11:49:50 2022
; FORMAT={-:-/ absolute / inch / decimal}
; #@! TF.CreationDate,2022-09-05T11:49:50+02:00
; #@! TF.GenerationSoftware,Kicad,Pcbnew,(6.0.0)
; #@! TF.FileFunction,MixedPlating,1,4
FMAT,2
INCH
; #@! TA.AperFunction,Plated,PTH,ViaDrill
T1C0.0118
; #@! TA.AperFunction,Plated,PTH,ViaDrill
T2C0.0157
; #@! TA.AperFunction,Plated,PTH,ComponentDrill
T3C0.0295
; #@! TA.AperFunction,Plated,PTH,ViaDrill
T4C0.0315
; #@! TA.AperFunction,Plated,PTH,ComponentDrill
T5C0.0354
; #@! TA.AperFunction,Plated,PTH,ComponentDrill
T6C0.0362
; #@! TA.AperFunction,Plated,PTH,ComponentDrill
T7C0.0394
; #@! TA.AperFunction,Plated,PTH,ComponentDrill
T8C0.0433
; #@! TA.AperFunction,Plated,PTH,ComponentDrill
T9C0.0512
; #@! TA.AperFunction,Plated,PTH,ComponentDrill
T10C0.0598
; #@! TA.AperFunction,Plated,PTH,ComponentDrill
T11C0.0787
; #@! TA.AperFunction,Plated,PTH,ComponentDrill
T12C0.0906
; #@! TA.AperFunction,Plated,PTH,ComponentDrill
T13C0.0980
; #@! TA.AperFunction,Plated,PTH,ComponentDrill
T14C0.1260
%
G90
G05
T1
X2.376Y-1.8957
X2.4685Y-1.9331
X2.5394Y-2.0354
X2.5945Y-3.7913
X2.6112Y-3.6486
X2.6181Y-1.689
X2.624Y-5.7776
X2.6614Y-5.7165
X2.6654Y-3.5551
X2.7047Y-1.9724
X2.7402Y-5.9134
X2.748Y-5.9764
X2.8071Y-3.6575
X2.8071Y-3.7992
X2.811Y-5.9606
X2.8558Y-6.815
X2.9567Y-3.6417
X3.2023Y-6.6417
X3.2023Y-6.8622
X3.2613Y-6.8583
X3.2653Y-6.6417
X3.5571Y-1.8957
X3.6496Y-1.9331
X3.7205Y-2.0354
X3.7756Y-3.7913
X3.7923Y-3.6486
X3.7992Y-1.689
X3.8051Y-5.7776
X3.8425Y-5.7165
X3.8465Y-3.5551
X3.8858Y-1.9724
X3.9237Y-5.9109
X3.9291Y-5.9764
X3.9882Y-3.6575
X3.9882Y-3.7992
X3.9921Y-5.9606
X4.0394Y-6.815
X4.1378Y-3.6417
X4.3858Y-6.6417
X4.3858Y-6.8622
X4.4449Y-6.8583
X4.4488Y-6.6417
X4.7362Y-1.8957
X4.8307Y-1.9331
X4.9016Y-2.0354
X4.9567Y-3.7913
X4.9724Y-3.6496
X4.9803Y-1.689
X5.0276Y-3.5551
X5.0669Y-1.9724
X5.1693Y-3.6575
X5.1693Y-3.7992
X5.2205Y-6.815
X5.3189Y-3.6417
X5.5669Y-6.6417
X5.5669Y-6.8622
X5.626Y-6.8583
X5.6299Y-6.6417
X5.9193Y-1.8957
X6.0118Y-1.9331
X6.0827Y-2.0354
X6.1378Y-3.7913
X6.1535Y-3.6496
X6.1614Y-1.689
X6.2087Y-3.5551
X6.248Y-1.9724
X6.3504Y-3.6575
X6.3504Y-3.7992
X6.4016Y-6.815
X6.5Y-3.6417
X6.748Y-6.6417
X6.748Y-6.8622
X6.8071Y-6.8583
X6.811Y-6.6417
X7.1004Y-1.8957
X7.1929Y-1.9331
X7.2638Y-2.0354
X7.3189Y-3.7913
X7.3346Y-3.6496
X7.3425Y-1.689
X7.3898Y-3.5551
X7.4291Y-1.9724
X7.5315Y-3.6575
X7.5315Y-3.7992
X7.6811Y-3.6417
X8.2795Y-1.8957
X8.374Y-1.9331
X8.4449Y-2.0354
X8.5Y-3.7913
X8.5167Y-3.6486
X8.5236Y-1.689
X8.5709Y-3.5551
X8.6102Y-1.9724
X8.7126Y-3.6575
X8.7126Y-3.7992
X8.8583Y-6.0551
X8.8622Y-3.6417
X9.0354Y-6.2598
X9.0354Y-6.3228
X9.0394Y-6.0551
X9.0551Y-6.0157
X9.0551Y-6.1102
X9.1732Y-6.3858
X9.1732Y-6.4488
X9.1732Y-6.5118
X9.1732Y-6.5748
X9.2929Y-6.0716
X9.3504Y-6.311
X9.4Y-6.2512
X9.4252Y-6.7008
X9.4449Y-6.2244
X9.4575Y-6.6614
X9.4584Y-6.0008
X9.4606Y-1.8957
X9.5039Y-6.7008
X9.5197Y-6.6614
X9.5433Y-6.622
X9.5551Y-1.9331
X9.5984Y-6.4567
X9.622Y-6.4795
X9.626Y-2.0354
X9.6457Y-6.5039
X9.6693Y-6.5276
X9.6811Y-3.7835
X9.6969Y-3.6496
X9.7008Y-6.8425
X9.7047Y-1.689
X9.7323Y-6.126
X9.7323Y-6.2913
X9.7323Y-6.5512
X9.7402Y-6.0551
X9.7402Y-6.7953
X9.7518Y-6.5707
X9.752Y-3.5551
X9.7717Y-6.0079
X9.7717Y-6.1024
X9.7717Y-6.5906
X9.7911Y-6.61
X9.7913Y-1.9724
X9.811Y-6.9055
X9.8583Y-6.2677
X9.8898Y-6.0551
X9.8898Y-6.0866
X9.8937Y-3.6575
X9.8937Y-3.7992
X9.9055Y-5.7795
X9.9055Y-5.9213
X9.9528Y-6.4646
X9.9764Y-6.0472
X10.0236Y-6.4252
X10.0315Y-6.6457
X10.0315Y-6.6772
X10.0315Y-6.7087
X10.0315Y-6.7402
X10.0433Y-3.6417
X10.0472Y-6.6063
X10.0748Y-6.6063
X10.1024Y-6.6063
X10.1575Y-6.4567
X10.1614Y-6.5079
X10.1654Y-6.7835
X10.1654Y-6.8111
X10.1654Y-6.8386
X10.1654Y-6.8661
X10.2087Y-6.5551
X10.2126Y-6.6142
X10.2283Y-6.378
X10.2283Y-6.5276
X10.248Y-5.811
X10.248Y-5.874
X10.248Y-6.0472
X10.249Y-6.1053
X10.3386Y-6.4961
X10.3701Y-6.5748
X10.4409Y-6.4252
X10.5037Y-5.9998
X10.5039Y-6.4488
X10.6437Y-1.8957
X10.7362Y-1.9331
X10.7402Y-6.0748
X10.7756Y-6.6024
X10.7756Y-6.748
X10.8071Y-2.0354
X10.8386Y-6.7362
X10.8622Y-3.7835
X10.8789Y-3.6486
X10.8858Y-1.689
X10.9016Y-6.6024
X10.9016Y-6.748
X10.9291Y-1.9291
X10.9331Y-3.5551
X10.9646Y-6.7362
X10.9921Y-2.0669
X11.0276Y-6.6024
X11.0276Y-6.748
X11.0748Y-3.6575
X11.0748Y-3.7992
X11.0906Y-6.7362
X11.1024Y-2.1063
X11.1299Y-5.8425
X11.1535Y-6.6024
X11.1535Y-6.748
X11.2126Y-2.1457
X11.2165Y-6.7362
X11.2244Y-3.6417
X11.2795Y-6.6024
X11.2795Y-6.748
X11.3228Y-2.185
X11.3425Y-6.7362
X11.4055Y-6.6024
X11.4055Y-6.748
X11.4331Y-2.2244
X11.4685Y-6.7362
X11.5315Y-6.6024
X11.5315Y-6.748
X11.5433Y-2.2638
X11.5945Y-6.7362
X11.6535Y-2.3031
X11.6575Y-6.6024
X11.6575Y-6.748
X11.7205Y-6.7362
X11.7638Y-2.3425
X11.7638Y-6.3701
X11.7638Y-6.5118
X11.7717Y-5.9921
X11.8346Y-6.3701
X11.8346Y-6.5118
X11.8406Y-5.9921
X11.9055Y-6.3701
X11.9055Y-6.5118
X11.9094Y-5.9921
X11.9252Y-3.4843
X11.9764Y-6.3701
X11.9764Y-6.5118
X11.9783Y-5.9902
X11.9961Y-6.9016
X11.9961Y-7.0276
X12.0354Y-4.1535
X12.0906Y-4.1535
X12.2008Y-4.1535
X12.3189Y-6.6575
X12.3189Y-6.8937
X12.3268Y-4.4606
X12.3504Y-6.6575
X12.3504Y-6.8937
X12.3819Y-2.248
X12.3819Y-3.626
X12.3819Y-6.1535
X12.3819Y-6.6575
X12.3819Y-6.8937
X12.4134Y-6.6575
X12.4134Y-6.8937
X12.4213Y-2.248
X12.4213Y-3.626
X12.425Y-1.9016
X12.4291Y-3.2795
X12.4449Y-6.6575
X12.4449Y-6.689
X12.4449Y-6.7205
X12.4449Y-6.752
X12.4449Y-6.7992
X12.4449Y-6.8307
X12.4449Y-6.8622
X12.4449Y-6.8937
X12.4606Y-6.1929
X12.4606Y-6.4291
X12.475Y-1.9016
X12.4764Y-3.2795
X12.4921Y-6.1929
X12.4921Y-6.4291
X12.5236Y-3.2795
X12.5236Y-6.1929
X12.5236Y-6.4291
X12.525Y-1.9016
X12.5551Y-6.1929
X12.5551Y-6.4291
X12.5787Y-2.248
X12.5787Y-3.626
X12.5866Y-6.1929
X12.5866Y-6.2244
X12.5866Y-6.2559
X12.5866Y-6.2874
X12.5866Y-6.3346
X12.5866Y-6.3661
X12.5866Y-6.3976
X12.5866Y-6.4291
X12.6024Y-2.2717
X12.6181Y-3.6575
X12.622Y-3.5945
X12.626Y-2.2953
X14.0945Y-3.0315
X14.0945Y-3.0709
X14.1339Y-3.0315
X14.1339Y-3.0709
X14.1732Y-3.0315
X14.1732Y-3.0709
T2
X2.3622Y-2.3622
X2.3622Y-2.5591
X2.3622Y-2.7559
X2.3622Y-2.9528
X2.3622Y-3.1496
X2.3622Y-3.3465
X2.3622Y-3.5433
X2.3622Y-3.7402
X2.3622Y-3.937
X2.3622Y-4.1339
X2.3622Y-4.3307
X2.3622Y-4.5276
X2.3622Y-4.7244
X2.3622Y-4.9213
X2.3622Y-5.1181
X2.3622Y-5.315
X2.3622Y-5.5118
X2.3622Y-5.7087
X2.3622Y-5.9055
X2.3622Y-6.1024
X2.3622Y-6.2992
X2.3622Y-6.4961
X2.3622Y-6.6929
X2.3622Y-6.8898
X2.3622Y-7.0866
X2.5591Y-2.5591
X2.5591Y-2.7559
X2.5591Y-2.9528
X2.5591Y-3.1496
X2.5591Y-3.3465
X2.5591Y-3.937
X2.5591Y-4.1339
X2.5591Y-4.3307
X2.5591Y-4.5276
X2.5591Y-4.7244
X2.5591Y-4.9213
X2.5591Y-5.1181
X2.5591Y-5.315
X2.5591Y-5.5118
X2.5591Y-6.1024
X2.5591Y-6.2992
X2.5591Y-6.4961
X2.5591Y-7.0866
X2.7559Y-2.5591
X2.7559Y-2.7559
X2.7559Y-2.9528
X2.7559Y-3.937
X2.7559Y-4.1339
X2.7559Y-4.3307
X2.7559Y-4.5276
X2.7559Y-4.7244
X2.7559Y-4.9213
X2.7559Y-5.1181
X2.7559Y-6.1024
X2.7559Y-6.2992
X2.7559Y-6.4961
X2.7559Y-7.0866
X2.8652Y-5.749
X2.9528Y-2.5591
X2.9528Y-3.937
X2.9528Y-4.1339
X2.9528Y-4.3307
X2.9528Y-4.5276
X2.9528Y-4.7244
X2.9528Y-4.9213
X2.9528Y-5.1181
X2.9528Y-5.315
X2.9528Y-6.1024
X2.9528Y-6.4961
X2.9528Y-7.0866
X3.1496Y-2.5591
X3.1496Y-3.1496
X3.1496Y-3.3465
X3.1496Y-3.5433
X3.1496Y-3.7402
X3.1496Y-3.937
X3.1496Y-4.1339
X3.1496Y-4.3307
X3.1496Y-4.5276
X3.1496Y-4.7244
X3.1496Y-4.9213
X3.1496Y-5.1181
X3.1496Y-5.315
X3.1496Y-5.5118
X3.1496Y-5.9055
X3.1496Y-6.1024
X3.1496Y-6.4961
X3.1496Y-7.0866
X3.3465Y-2.5591
X3.3465Y-3.1496
X3.3465Y-3.3465
X3.3465Y-3.5433
X3.3465Y-3.7402
X3.3465Y-3.937
X3.3465Y-4.1339
X3.3465Y-4.3307
X3.3465Y-4.5276
X3.3465Y-4.7244
X3.3465Y-4.9213
X3.3465Y-5.1181
X3.3465Y-5.315
X3.3465Y-5.5118
X3.3465Y-5.9055
X3.3465Y-6.1024
X3.3465Y-7.0866
X3.5433Y-2.5591
X3.5433Y-3.1496
X3.5433Y-3.3465
X3.5433Y-3.5433
X3.5433Y-3.7402
X3.5433Y-3.937
X3.5433Y-4.1339
X3.5433Y-4.3307
X3.5433Y-4.5276
X3.5433Y-4.7244
X3.5433Y-4.9213
X3.5433Y-5.1181
X3.5433Y-5.315
X3.5433Y-5.5118
X3.5433Y-5.9055
X3.5433Y-6.1024
X3.5433Y-6.4961
X3.5433Y-6.6929
X3.5433Y-6.8898
X3.5433Y-7.0866
X3.7402Y-2.5591
X3.7402Y-3.1496
X3.7402Y-3.3465
X3.7402Y-3.937
X3.7402Y-4.1339
X3.7402Y-4.3307
X3.7402Y-4.5276
X3.7402Y-4.7244
X3.7402Y-4.9213
X3.7402Y-5.1181
X3.7402Y-5.315
X3.7402Y-5.5118
X3.7402Y-6.1024
X3.7402Y-6.4961
X3.7402Y-7.0866
X3.937Y-2.5591
X3.937Y-3.937
X3.937Y-4.1339
X3.937Y-4.3307
X3.937Y-4.5276
X3.937Y-4.7244
X3.937Y-4.9213
X3.937Y-5.1181
X3.937Y-6.1024
X3.937Y-6.4961
X3.937Y-7.0866
X4.0453Y-5.75
X4.1339Y-2.5591
X4.1339Y-4.1339
X4.1339Y-4.3307
X4.1339Y-4.5276
X4.1339Y-4.7244
X4.1339Y-4.9213
X4.1339Y-5.1181
X4.1339Y-5.315
X4.1339Y-6.1024
X4.1339Y-6.4961
X4.1339Y-7.0866
X4.3307Y-2.5591
X4.3307Y-3.1496
X4.3307Y-3.3465
X4.3307Y-3.5433
X4.3307Y-3.7402
X4.3307Y-4.1339
X4.3307Y-4.3307
X4.3307Y-4.5276
X4.3307Y-4.7244
X4.3307Y-4.9213
X4.3307Y-5.1181
X4.3307Y-5.315
X4.3307Y-5.5118
X4.3307Y-5.7087
X4.3307Y-5.9055
X4.3307Y-6.1024
X4.3307Y-6.4961
X4.3307Y-7.0866
X4.5276Y-2.5591
X4.5276Y-3.1496
X4.5276Y-3.3465
X4.5276Y-3.5433
X4.5276Y-3.7402
X4.5276Y-4.1339
X4.5276Y-4.3307
X4.5276Y-4.5276
X4.5276Y-4.7244
X4.5276Y-4.9213
X4.5276Y-5.1181
X4.5276Y-7.0866
X4.7244Y-2.5591
X4.7244Y-3.1496
X4.7244Y-3.3465
X4.7244Y-3.5433
X4.7244Y-3.7402
X4.7244Y-4.1339
X4.7244Y-4.3307
X4.7244Y-4.5276
X4.7244Y-4.7244
X4.7244Y-4.9213
X4.7244Y-5.1181
X4.7244Y-6.4961
X4.7244Y-6.6929
X4.7244Y-6.8898
X4.7244Y-7.0866
X4.9213Y-2.5591
X4.9213Y-3.1496
X4.9213Y-3.3465
X4.9213Y-4.1339
X4.9213Y-4.3307
X4.9213Y-4.5276
X4.9213Y-4.7244
X4.9213Y-4.9213
X4.9213Y-5.1181
X4.9213Y-7.0866
X5.1181Y-2.5591
X5.1181Y-4.1339
X5.1181Y-4.3307
X5.1181Y-4.5276
X5.1181Y-4.7244
X5.1181Y-4.9213
X5.1181Y-5.1181
X5.1181Y-7.0866
X5.315Y-2.5591
X5.315Y-4.1339
X5.315Y-4.3307
X5.315Y-4.5276
X5.315Y-4.7244
X5.315Y-4.9213
X5.315Y-5.1181
X5.315Y-7.0866
X5.5118Y-2.5591
X5.5118Y-3.1496
X5.5118Y-3.3465
X5.5118Y-3.5433
X5.5118Y-3.7402
X5.5118Y-4.1339
X5.5118Y-4.3307
X5.5118Y-4.5276
X5.5118Y-4.7244
X5.5118Y-4.9213
X5.5118Y-5.1181
X5.5118Y-7.0866
X5.7087Y-2.5591
X5.7087Y-3.1496
X5.7087Y-3.3465
X5.7087Y-3.5433
X5.7087Y-3.7402
X5.7087Y-4.1339
X5.7087Y-4.3307
X5.7087Y-4.5276
X5.7087Y-4.7244
X5.7087Y-4.9213
X5.7087Y-5.1181
X5.7087Y-7.0866
X5.9055Y-2.5591
X5.9055Y-3.1496
X5.9055Y-3.3465
X5.9055Y-3.5433
X5.9055Y-3.7402
X5.9055Y-4.1339
X5.9055Y-4.3307
X5.9055Y-4.5276
X5.9055Y-4.7244
X5.9055Y-4.9213
X5.9055Y-5.1181
X5.9055Y-7.0866
X6.1024Y-2.5591
X6.1024Y-3.1496
X6.1024Y-3.3465
X6.1024Y-4.1339
X6.1024Y-4.3307
X6.1024Y-4.5276
X6.1024Y-4.7244
X6.1024Y-4.9213
X6.1024Y-5.1181
X6.1024Y-7.0866
X6.2992Y-2.5591
X6.2992Y-4.1339
X6.2992Y-4.3307
X6.2992Y-4.5276
X6.2992Y-4.7244
X6.2992Y-4.9213
X6.2992Y-5.1181
X6.2992Y-7.0866
X6.4961Y-2.5591
X6.4961Y-4.1339
X6.4961Y-4.3307
X6.4961Y-4.5276
X6.4961Y-4.7244
X6.4961Y-4.9213
X6.4961Y-5.1181
X6.4961Y-7.0866
X6.6929Y-2.5591
X6.6929Y-3.1496
X6.6929Y-3.3465
X6.6929Y-3.5433
X6.6929Y-3.7402
X6.6929Y-4.1339
X6.6929Y-4.3307
X6.6929Y-4.5276
X6.6929Y-4.7244
X6.6929Y-4.9213
X6.6929Y-5.1181
X6.6929Y-5.315
X6.6929Y-5.5118
X6.6929Y-5.7087
X6.6929Y-7.0866
X6.8898Y-2.5591
X6.8898Y-3.1496
X6.8898Y-3.3465
X6.8898Y-3.5433
X6.8898Y-3.7402
X6.8898Y-4.1339
X6.8898Y-4.3307
X6.8898Y-4.5276
X6.8898Y-4.7244
X6.8898Y-4.9213
X6.8898Y-5.1181
X6.8898Y-5.315
X6.8898Y-5.5118
X6.8898Y-5.7087
X6.8898Y-7.0866
X7.0866Y-2.5591
X7.0866Y-3.1496
X7.0866Y-3.3465
X7.0866Y-3.5433
X7.0866Y-3.7402
X7.0866Y-4.1339
X7.0866Y-5.5118
X7.0866Y-5.7087
X7.0866Y-6.6929
X7.0866Y-6.8898
X7.0866Y-7.0866
X7.2835Y-2.5591
X7.2835Y-3.1496
X7.2835Y-3.3465
X7.2835Y-4.1339
X7.2835Y-5.7087
X7.2835Y-5.9055
X7.2835Y-6.1024
X7.2835Y-6.6929
X7.2835Y-6.8898
X7.2835Y-7.0866
X7.4803Y-2.5591
X7.4803Y-4.1339
X7.4803Y-5.7087
X7.4803Y-5.9055
X7.4803Y-6.1024
X7.4803Y-6.6929
X7.4803Y-6.8898
X7.4803Y-7.0866
X7.5472Y-4.248
X7.6772Y-2.5591
X7.6772Y-4.1339
X7.6772Y-5.7087
X7.6772Y-5.9055
X7.6772Y-6.1024
X7.6772Y-6.6929
X7.6772Y-6.8898
X7.6772Y-7.0866
X7.874Y-2.5591
X7.874Y-3.1496
X7.874Y-3.3465
X7.874Y-3.5433
X7.874Y-3.7402
X7.874Y-5.7087
X7.874Y-5.9055
X7.874Y-6.1024
X7.874Y-6.6929
X7.874Y-6.8898
X7.874Y-7.0866
X8.0709Y-2.5591
X8.0709Y-3.1496
X8.0709Y-3.3465
X8.0709Y-3.5433
X8.0709Y-3.7402
X8.0709Y-5.7087
X8.0709Y-5.9055
X8.0709Y-6.1024
X8.0709Y-6.6929
X8.0709Y-6.8898
X8.0709Y-7.0866
X8.2677Y-2.5591
X8.2677Y-3.1496
X8.2677Y-3.3465
X8.2677Y-3.5433
X8.2677Y-3.7402
X8.2677Y-5.7087
X8.2677Y-5.9055
X8.2677Y-6.1024
X8.2677Y-6.6929
X8.2677Y-6.8898
X8.2677Y-7.0866
X8.4646Y-2.5591
X8.4646Y-3.1496
X8.4646Y-3.3465
X8.4646Y-5.7087
X8.4646Y-5.9055
X8.4646Y-6.1024
X8.4646Y-6.6929
X8.4646Y-6.8898
X8.4646Y-7.0866
X8.6614Y-2.5591
X8.6614Y-5.7087
X8.6614Y-5.9055
X8.6614Y-6.1024
X8.6614Y-6.6929
X8.6614Y-6.8898
X8.6614Y-7.0866
X8.7283Y-4.2559
X8.8583Y-2.5591
X8.8583Y-5.7087
X8.8583Y-6.6929
X8.8583Y-6.8898
X8.8583Y-7.0866
X9.0551Y-2.5591
X9.0551Y-3.1496
X9.0551Y-3.3465
X9.0551Y-3.5433
X9.0551Y-3.7402
X9.0551Y-5.7087
X9.0551Y-6.6929
X9.0551Y-6.8898
X9.0551Y-7.0866
X9.252Y-2.5591
X9.252Y-3.1496
X9.252Y-3.3465
X9.252Y-3.5433
X9.252Y-3.7402
X9.252Y-5.7087
X9.252Y-6.6929
X9.252Y-6.8898
X9.252Y-7.0866
X9.4488Y-2.5591
X9.4488Y-3.1496
X9.4488Y-3.3465
X9.4488Y-3.5433
X9.4488Y-3.7402
X9.4488Y-5.7087
X9.4488Y-7.0866
X9.6457Y-2.5591
X9.6457Y-3.1496
X9.6457Y-3.3465
X9.8425Y-2.5591
X9.9094Y-4.2559
X10.0394Y-2.5591
X10.0394Y-5.7087
X10.2362Y-2.5591
X10.2362Y-3.1496
X10.2362Y-3.3465
X10.2362Y-3.5433
X10.2362Y-3.7402
X10.2362Y-5.7087
X10.4331Y-2.5591
X10.4331Y-3.1496
X10.4331Y-3.3465
X10.4331Y-3.5433
X10.4331Y-3.7402
X10.4331Y-5.7087
X10.6299Y-2.5591
X10.6299Y-3.1496
X10.6299Y-3.3465
X10.6299Y-3.5433
X10.6299Y-3.7402
X10.6299Y-5.5118
X10.6299Y-5.7087
X10.8268Y-3.1496
X10.8268Y-3.3465
X10.8268Y-5.5118
X10.8268Y-5.7087
X11.0236Y-5.5118
X11.0236Y-5.7087
X11.0906Y-4.2559
X11.2205Y-5.5118
X11.2205Y-5.7087
X11.4173Y-3.1496
X11.4173Y-3.3465
X11.4173Y-3.5433
X11.4173Y-3.7402
X11.6142Y-3.1496
X11.6142Y-3.3465
X11.6142Y-3.5433
X11.6142Y-3.7402
X11.811Y-3.1496
X11.811Y-3.3465
X11.811Y-3.5433
X11.811Y-3.7402
X11.811Y-3.937
X12.4331Y-7.0315
X12.5197Y-6.6378
X12.5354Y-6.8661
X12.5945Y-6.9252
X12.6102Y-6.1299
X12.626Y-6.5
X12.6535Y-6.8661
X12.6654Y-6.3976
X12.7362Y-6.4606
X12.8071Y-6.3976
X12.9528Y-4.9606
X12.9528Y-5.0394
X12.9528Y-5.1181
X12.9528Y-5.1969
X13.0315Y-4.9606
X13.0315Y-5.0394
X13.0315Y-5.1181
X13.0315Y-5.1969
X13.1102Y-4.9606
X13.1102Y-5.0394
X13.1102Y-5.1181
X13.1102Y-5.1969
X13.189Y-4.9606
X13.189Y-5.0394
X13.189Y-5.1181
X13.189Y-5.1969
X13.6811Y-1.5748
X13.6811Y-1.7717
X13.6811Y-1.9685
X13.6811Y-2.1654
X13.6811Y-2.3622
X13.6811Y-2.5591
X13.6811Y-2.7559
X14.1732Y-1.7717
X14.1732Y-1.9685
X14.1732Y-2.1654
X14.1732Y-2.3622
X14.1732Y-2.5591
X14.1732Y-2.7559
X14.3701Y-1.5748
X14.3701Y-1.7717
X14.3701Y-1.9685
X14.3701Y-2.1654
X14.3701Y-2.3622
X14.3701Y-2.5591
X14.3701Y-2.7559
X14.3701Y-3.3465
X14.3701Y-3.5433
X14.3701Y-3.7402
X14.3701Y-3.937
X14.3701Y-4.1339
X14.3701Y-5.4134
X14.3701Y-5.6102
T3
X11.2362Y-5.8031
X11.2362Y-5.8819
X11.2362Y-5.9606
X11.2362Y-6.0394
X11.5059Y-1.7323
X11.5059Y-1.811
X11.5059Y-1.8898
X11.5059Y-1.9685
X14.2185Y-5.5157
X14.2185Y-5.5945
X14.2185Y-5.6732
X14.2185Y-5.752
T4
X12.4094Y-4.0157
X12.4291Y-4.3583
T5
X7.1063Y-4.9409
X7.2063Y-4.9409
X8.2874Y-4.9409
X8.3874Y-4.9409
X9.4685Y-4.9409
X9.5685Y-4.9409
X10.6496Y-4.9409
X10.7496Y-4.9409
X12.3819Y-5.8646
X12.3819Y-5.9646
T6
X13.8504Y-1.7717
X13.8504Y-1.8701
X13.9764Y-1.7717
X13.9764Y-1.8701
T7
X8.7874Y-5.9024
X8.7874Y-6.0024
X8.7874Y-6.1024
X8.7874Y-6.2024
X10.6439Y-6.3588
X10.6439Y-6.4588
X10.7439Y-6.3588
X10.7439Y-6.4588
X10.8439Y-6.3588
X10.8439Y-6.4588
X13.8024Y-2.612
X13.8024Y-2.7211
X13.8024Y-2.8301
X13.8024Y-2.9392
X13.8024Y-4.3065
X13.8024Y-4.4156
X13.8024Y-4.5246
X13.8024Y-4.6337
X13.9142Y-2.5575
X13.9142Y-2.6665
X13.9142Y-2.7756
X13.9142Y-2.8846
X13.9142Y-2.9937
X13.9142Y-4.252
X13.9142Y-4.361
X13.9142Y-4.4701
X13.9142Y-4.5791
X13.9142Y-4.6882
T8
X13.2559Y-6.8858
T9
X7.7441Y-4.3947
X7.7441Y-4.7947
X7.7441Y-5.0947
X8.0441Y-4.3947
X8.9252Y-4.3947
X8.9252Y-4.7947
X8.9252Y-5.0947
X9.2252Y-4.3947
X10.1063Y-4.3947
X10.1063Y-4.7947
X10.1063Y-5.0947
X10.4063Y-4.3947
X11.2874Y-4.3947
X11.2874Y-4.7947
X11.2874Y-5.0947
X11.5874Y-4.3947
T10
X13.678Y-5.4724
X13.678Y-5.7874
X13.878Y-5.4724
X13.878Y-5.7874
X14.078Y-5.4724
X14.078Y-5.7874
X14.2913Y-4.6031
X14.2913Y-4.8031
X14.2913Y-5.0031
T11
X2.7362Y-1.7913
X2.7362Y-3.1693
X2.7362Y-5.3346
X2.7362Y-6.7126
X3.9173Y-1.7913
X3.9173Y-3.1693
X3.9173Y-5.3346
X3.9173Y-6.7126
X5.0984Y-1.7913
X5.0984Y-3.1693
X5.0984Y-6.7126
X6.2795Y-1.7913
X6.2795Y-3.1693
X6.2795Y-6.7126
X7.4606Y-1.7913
X7.4606Y-3.1693
X7.4606Y-4.5472
X7.4606Y-5.3346
X8.6417Y-1.7913
X8.6417Y-3.1693
X8.6417Y-4.5472
X8.6417Y-5.3346
X9.8228Y-1.7913
X9.8228Y-3.1693
X9.8228Y-4.5472
X9.8228Y-5.3346
X11.0039Y-1.7913
X11.0039Y-3.1693
X11.0039Y-4.5472
X11.0039Y-5.3346
X12.3819Y-1.7913
X12.3819Y-3.1693
X12.3819Y-5.3346
X13.1693Y-1.7913
X13.1693Y-3.1693
X13.1693Y-5.3346
T12
X13.8697Y-1.5839
X13.8697Y-2.0579
T13
X14.3496Y-3.0598
X14.3496Y-4.2972
T14
X13.8583Y-2.2835
X13.8583Y-3.2677
X13.8583Y-3.978
X13.8583Y-4.9622
T0
M30
