%TF.GenerationSoftware,KiCad,Pcbnew,(6.0.0)*%
%TF.CreationDate,2022-09-05T11:49:44+02:00*%
%TF.ProjectId,micro_HIL_v0.1,6d696372-6f5f-4484-994c-5f76302e312e,rev?*%
%TF.SameCoordinates,Original*%
%TF.FileFunction,Paste,Top*%
%TF.FilePolarity,Positive*%
%FSLAX46Y46*%
G04 Gerber Fmt 4.6, Leading zero omitted, Abs format (unit mm)*
G04 Created by KiCad (PCBNEW (6.0.0)) date 2022-09-05 11:49:44*
%MOMM*%
%LPD*%
G01*
G04 APERTURE LIST*
G04 Aperture macros list*
%AMRoundRect*
0 Rectangle with rounded corners*
0 $1 Rounding radius*
0 $2 $3 $4 $5 $6 $7 $8 $9 X,Y pos of 4 corners*
0 Add a 4 corners polygon primitive as box body*
4,1,4,$2,$3,$4,$5,$6,$7,$8,$9,$2,$3,0*
0 Add four circle primitives for the rounded corners*
1,1,$1+$1,$2,$3*
1,1,$1+$1,$4,$5*
1,1,$1+$1,$6,$7*
1,1,$1+$1,$8,$9*
0 Add four rect primitives between the rounded corners*
20,1,$1+$1,$2,$3,$4,$5,0*
20,1,$1+$1,$4,$5,$6,$7,0*
20,1,$1+$1,$6,$7,$8,$9,0*
20,1,$1+$1,$8,$9,$2,$3,0*%
%AMRotRect*
0 Rectangle, with rotation*
0 The origin of the aperture is its center*
0 $1 length*
0 $2 width*
0 $3 Rotation angle, in degrees counterclockwise*
0 Add horizontal line*
21,1,$1,$2,0,0,$3*%
G04 Aperture macros list end*
%ADD10RoundRect,0.250000X-0.250000X-0.475000X0.250000X-0.475000X0.250000X0.475000X-0.250000X0.475000X0*%
%ADD11RoundRect,0.200000X-0.200000X-0.275000X0.200000X-0.275000X0.200000X0.275000X-0.200000X0.275000X0*%
%ADD12RoundRect,0.200000X0.275000X-0.200000X0.275000X0.200000X-0.275000X0.200000X-0.275000X-0.200000X0*%
%ADD13R,1.200000X0.900000*%
%ADD14RoundRect,0.150000X-0.150000X0.825000X-0.150000X-0.825000X0.150000X-0.825000X0.150000X0.825000X0*%
%ADD15RoundRect,0.150000X0.150000X-0.587500X0.150000X0.587500X-0.150000X0.587500X-0.150000X-0.587500X0*%
%ADD16RoundRect,0.225000X-0.225000X-0.250000X0.225000X-0.250000X0.225000X0.250000X-0.225000X0.250000X0*%
%ADD17RoundRect,0.150000X0.150000X-0.512500X0.150000X0.512500X-0.150000X0.512500X-0.150000X-0.512500X0*%
%ADD18RoundRect,0.200000X-0.275000X0.200000X-0.275000X-0.200000X0.275000X-0.200000X0.275000X0.200000X0*%
%ADD19RotRect,1.400000X1.200000X225.000000*%
%ADD20RoundRect,0.150000X-0.512500X-0.150000X0.512500X-0.150000X0.512500X0.150000X-0.512500X0.150000X0*%
%ADD21R,2.000000X1.500000*%
%ADD22R,2.000000X3.800000*%
%ADD23RoundRect,0.225000X0.250000X-0.225000X0.250000X0.225000X-0.250000X0.225000X-0.250000X-0.225000X0*%
%ADD24RoundRect,0.150000X-0.150000X0.587500X-0.150000X-0.587500X0.150000X-0.587500X0.150000X0.587500X0*%
%ADD25RoundRect,0.200000X0.200000X0.275000X-0.200000X0.275000X-0.200000X-0.275000X0.200000X-0.275000X0*%
%ADD26R,1.500000X2.000000*%
%ADD27R,3.800000X2.000000*%
%ADD28R,1.900000X3.250000*%
%ADD29RoundRect,0.250000X-1.450000X0.312500X-1.450000X-0.312500X1.450000X-0.312500X1.450000X0.312500X0*%
%ADD30RoundRect,0.150000X0.512500X0.150000X-0.512500X0.150000X-0.512500X-0.150000X0.512500X-0.150000X0*%
%ADD31RoundRect,0.225000X-0.250000X0.225000X-0.250000X-0.225000X0.250000X-0.225000X0.250000X0.225000X0*%
%ADD32RoundRect,0.150000X0.587500X0.150000X-0.587500X0.150000X-0.587500X-0.150000X0.587500X-0.150000X0*%
%ADD33RoundRect,0.250000X-0.475000X0.250000X-0.475000X-0.250000X0.475000X-0.250000X0.475000X0.250000X0*%
%ADD34RoundRect,0.150000X-0.587500X-0.150000X0.587500X-0.150000X0.587500X0.150000X-0.587500X0.150000X0*%
%ADD35RoundRect,0.218750X0.424264X0.114905X0.114905X0.424264X-0.424264X-0.114905X-0.114905X-0.424264X0*%
%ADD36RoundRect,0.225000X0.017678X-0.335876X0.335876X-0.017678X-0.017678X0.335876X-0.335876X0.017678X0*%
%ADD37RoundRect,0.250000X1.075000X-0.375000X1.075000X0.375000X-1.075000X0.375000X-1.075000X-0.375000X0*%
%ADD38RoundRect,0.250000X0.312500X1.450000X-0.312500X1.450000X-0.312500X-1.450000X0.312500X-1.450000X0*%
%ADD39RoundRect,0.150000X-0.825000X-0.150000X0.825000X-0.150000X0.825000X0.150000X-0.825000X0.150000X0*%
%ADD40R,1.300000X1.700000*%
%ADD41RoundRect,0.225000X0.335876X0.017678X0.017678X0.335876X-0.335876X-0.017678X-0.017678X-0.335876X0*%
%ADD42RoundRect,0.225000X-0.017678X0.335876X-0.335876X0.017678X0.017678X-0.335876X0.335876X-0.017678X0*%
%ADD43RoundRect,0.250000X-0.375000X-1.075000X0.375000X-1.075000X0.375000X1.075000X-0.375000X1.075000X0*%
%ADD44R,1.850000X0.600000*%
%ADD45RoundRect,0.218750X-0.218750X-0.381250X0.218750X-0.381250X0.218750X0.381250X-0.218750X0.381250X0*%
%ADD46RoundRect,0.200000X0.053033X-0.335876X0.335876X-0.053033X-0.053033X0.335876X-0.335876X0.053033X0*%
%ADD47RoundRect,0.243750X0.456250X-0.243750X0.456250X0.243750X-0.456250X0.243750X-0.456250X-0.243750X0*%
%ADD48RoundRect,0.225000X0.225000X0.250000X-0.225000X0.250000X-0.225000X-0.250000X0.225000X-0.250000X0*%
%ADD49RoundRect,0.250000X-0.550000X1.500000X-0.550000X-1.500000X0.550000X-1.500000X0.550000X1.500000X0*%
%ADD50RoundRect,0.225000X-0.335876X-0.017678X-0.017678X-0.335876X0.335876X0.017678X0.017678X0.335876X0*%
%ADD51R,2.920000X1.270000*%
%ADD52RoundRect,0.250000X0.250000X0.475000X-0.250000X0.475000X-0.250000X-0.475000X0.250000X-0.475000X0*%
%ADD53RoundRect,0.075000X-0.548008X0.441942X0.441942X-0.548008X0.548008X-0.441942X-0.441942X0.548008X0*%
%ADD54RoundRect,0.075000X-0.548008X-0.441942X-0.441942X-0.548008X0.548008X0.441942X0.441942X0.548008X0*%
%ADD55R,0.900000X1.200000*%
%ADD56R,3.500000X2.300000*%
G04 APERTURE END LIST*
D10*
%TO.C,C19*%
X317350000Y-165100000D03*
X319250000Y-165100000D03*
%TD*%
D11*
%TO.C,R59*%
X127075000Y-92700000D03*
X128725000Y-92700000D03*
%TD*%
D12*
%TO.C,R133*%
X79737500Y-171525000D03*
X79737500Y-169875000D03*
%TD*%
D13*
%TO.C,D19*%
X241500000Y-46350000D03*
X241500000Y-43050000D03*
%TD*%
D11*
%TO.C,R108*%
X155875000Y-50100000D03*
X157525000Y-50100000D03*
%TD*%
D14*
%TO.C,U19*%
X319405000Y-50025000D03*
X318135000Y-50025000D03*
X316865000Y-50025000D03*
X315595000Y-50025000D03*
X315595000Y-54975000D03*
X316865000Y-54975000D03*
X318135000Y-54975000D03*
X319405000Y-54975000D03*
%TD*%
D11*
%TO.C,R80*%
X301875000Y-180100000D03*
X303525000Y-180100000D03*
%TD*%
D15*
%TO.C,Q11*%
X156750000Y-90837500D03*
X158650000Y-90837500D03*
X157700000Y-88962500D03*
%TD*%
D16*
%TO.C,C60*%
X230225000Y-167000000D03*
X231775000Y-167000000D03*
%TD*%
D17*
%TO.C,U11*%
X160350000Y-95237500D03*
X161300000Y-95237500D03*
X162250000Y-95237500D03*
X162250000Y-92962500D03*
X160350000Y-92962500D03*
%TD*%
D18*
%TO.C,R34*%
X95500000Y-92675000D03*
X95500000Y-94325000D03*
%TD*%
D14*
%TO.C,U18*%
X319405000Y-85025000D03*
X318135000Y-85025000D03*
X316865000Y-85025000D03*
X315595000Y-85025000D03*
X315595000Y-89975000D03*
X316865000Y-89975000D03*
X318135000Y-89975000D03*
X319405000Y-89975000D03*
%TD*%
D19*
%TO.C,Y1*%
X238317857Y-151940902D03*
X236762222Y-153496537D03*
X237964303Y-154698618D03*
X239519938Y-153142983D03*
%TD*%
D16*
%TO.C,C61*%
X230225000Y-165400000D03*
X231775000Y-165400000D03*
%TD*%
D20*
%TO.C,U6*%
X261362500Y-161050000D03*
X261362500Y-162000000D03*
X261362500Y-162950000D03*
X263637500Y-162950000D03*
X263637500Y-162000000D03*
X263637500Y-161050000D03*
%TD*%
D21*
%TO.C,U8*%
X323450000Y-162600000D03*
X323450000Y-160300000D03*
D22*
X317150000Y-160300000D03*
D21*
X323450000Y-158000000D03*
%TD*%
D23*
%TO.C,C32*%
X313700000Y-88275000D03*
X313700000Y-86725000D03*
%TD*%
D20*
%TO.C,U30*%
X140262500Y-173350000D03*
X140262500Y-174300000D03*
X140262500Y-175250000D03*
X142537500Y-175250000D03*
X142537500Y-173350000D03*
%TD*%
D24*
%TO.C,Q3*%
X223650000Y-109562500D03*
X221750000Y-109562500D03*
X222700000Y-111437500D03*
%TD*%
D25*
%TO.C,R79*%
X98825000Y-150200000D03*
X97175000Y-150200000D03*
%TD*%
D11*
%TO.C,R36*%
X217075000Y-92700000D03*
X218725000Y-92700000D03*
%TD*%
D12*
%TO.C,R131*%
X109800000Y-171525000D03*
X109800000Y-169875000D03*
%TD*%
D26*
%TO.C,Q29*%
X313800000Y-60750000D03*
D27*
X311500000Y-67050000D03*
D26*
X311500000Y-60750000D03*
X309200000Y-60750000D03*
%TD*%
D28*
%TO.C,R74*%
X306750000Y-49875000D03*
X309250000Y-49875000D03*
X309250000Y-55125000D03*
X306750000Y-55125000D03*
%TD*%
D11*
%TO.C,R37*%
X157075000Y-92700000D03*
X158725000Y-92700000D03*
%TD*%
D29*
%TO.C,F1*%
X314400000Y-128062500D03*
X314400000Y-132337500D03*
%TD*%
D30*
%TO.C,U22*%
X243837500Y-50050000D03*
X243837500Y-49100000D03*
X243837500Y-48150000D03*
X241562500Y-48150000D03*
X241562500Y-50050000D03*
%TD*%
D11*
%TO.C,R94*%
X185875000Y-50100000D03*
X187525000Y-50100000D03*
%TD*%
D16*
%TO.C,C35*%
X316725000Y-57100000D03*
X318275000Y-57100000D03*
%TD*%
D25*
%TO.C,R84*%
X245325000Y-42900000D03*
X243675000Y-42900000D03*
%TD*%
D16*
%TO.C,C63*%
X230225000Y-162200000D03*
X231775000Y-162200000D03*
%TD*%
D31*
%TO.C,C21*%
X217100000Y-94525000D03*
X217100000Y-96075000D03*
%TD*%
D18*
%TO.C,R31*%
X275500000Y-92675000D03*
X275500000Y-94325000D03*
%TD*%
D23*
%TO.C,C47*%
X288100000Y-173875000D03*
X288100000Y-172325000D03*
%TD*%
D32*
%TO.C,Q40*%
X165337500Y-171450000D03*
X165337500Y-169550000D03*
X163462500Y-170500000D03*
%TD*%
D18*
%TO.C,R52*%
X73900000Y-92475000D03*
X73900000Y-94125000D03*
%TD*%
D11*
%TO.C,R136*%
X226775000Y-165400000D03*
X228425000Y-165400000D03*
%TD*%
D18*
%TO.C,R130*%
X141400000Y-169875000D03*
X141400000Y-171525000D03*
%TD*%
D32*
%TO.C,Q42*%
X105337500Y-171450000D03*
X105337500Y-169550000D03*
X103462500Y-170500000D03*
%TD*%
D12*
%TO.C,R25*%
X218700000Y-95925000D03*
X218700000Y-94275000D03*
%TD*%
D11*
%TO.C,R123*%
X163775000Y-173100000D03*
X165425000Y-173100000D03*
%TD*%
D13*
%TO.C,D25*%
X61500000Y-46350000D03*
X61500000Y-43050000D03*
%TD*%
D11*
%TO.C,R125*%
X103775000Y-173100000D03*
X105425000Y-173100000D03*
%TD*%
D25*
%TO.C,R93*%
X187525000Y-51700000D03*
X185875000Y-51700000D03*
%TD*%
D11*
%TO.C,R82*%
X96775000Y-147600000D03*
X98425000Y-147600000D03*
%TD*%
D18*
%TO.C,R65*%
X327500000Y-95875000D03*
X327500000Y-97525000D03*
%TD*%
D26*
%TO.C,Q23*%
X321300000Y-60750000D03*
D27*
X319000000Y-67050000D03*
D26*
X319000000Y-60750000D03*
X316700000Y-60750000D03*
%TD*%
D18*
%TO.C,R44*%
X292000000Y-153175000D03*
X292000000Y-154825000D03*
%TD*%
D12*
%TO.C,R51*%
X68700000Y-95925000D03*
X68700000Y-94275000D03*
%TD*%
D23*
%TO.C,C59*%
X82937500Y-171475000D03*
X82937500Y-169925000D03*
%TD*%
D15*
%TO.C,Q13*%
X96750000Y-90837500D03*
X98650000Y-90837500D03*
X97700000Y-88962500D03*
%TD*%
D23*
%TO.C,C29*%
X325900000Y-62475000D03*
X325900000Y-60925000D03*
%TD*%
D18*
%TO.C,R40*%
X302400000Y-162775000D03*
X302400000Y-164425000D03*
%TD*%
D16*
%TO.C,C54*%
X61725000Y-51700000D03*
X63275000Y-51700000D03*
%TD*%
D11*
%TO.C,R38*%
X97075000Y-92700000D03*
X98725000Y-92700000D03*
%TD*%
D28*
%TO.C,R73*%
X306750000Y-84900000D03*
X309250000Y-84900000D03*
X309250000Y-90150000D03*
X306750000Y-90150000D03*
%TD*%
D13*
%TO.C,D20*%
X211500000Y-46350000D03*
X211500000Y-43050000D03*
%TD*%
D17*
%TO.C,U14*%
X190350000Y-95237500D03*
X191300000Y-95237500D03*
X192250000Y-95237500D03*
X192250000Y-92962500D03*
X190350000Y-92962500D03*
%TD*%
D12*
%TO.C,R7*%
X314500000Y-155325000D03*
X314500000Y-153675000D03*
%TD*%
D33*
%TO.C,C31*%
X76000000Y-146050000D03*
X76000000Y-147950000D03*
%TD*%
D13*
%TO.C,D27*%
X137600000Y-169650000D03*
X137600000Y-172950000D03*
%TD*%
D18*
%TO.C,R9*%
X249100000Y-147875000D03*
X249100000Y-149525000D03*
%TD*%
D15*
%TO.C,Q15*%
X246750000Y-90837500D03*
X248650000Y-90837500D03*
X247700000Y-88962500D03*
%TD*%
D34*
%TO.C,Q27*%
X322162500Y-56350000D03*
X322162500Y-58250000D03*
X324037500Y-57300000D03*
%TD*%
D18*
%TO.C,R30*%
X103900000Y-92475000D03*
X103900000Y-94125000D03*
%TD*%
D25*
%TO.C,R16*%
X190125000Y-111500000D03*
X188475000Y-111500000D03*
%TD*%
D12*
%TO.C,R23*%
X278700000Y-95925000D03*
X278700000Y-94275000D03*
%TD*%
D24*
%TO.C,Q20*%
X72250000Y-88962500D03*
X70350000Y-88962500D03*
X71300000Y-90837500D03*
%TD*%
D34*
%TO.C,Q33*%
X243762500Y-44550000D03*
X243762500Y-46450000D03*
X245637500Y-45500000D03*
%TD*%
D18*
%TO.C,R13*%
X247500000Y-147875000D03*
X247500000Y-149525000D03*
%TD*%
D31*
%TO.C,C25*%
X187100000Y-94525000D03*
X187100000Y-96075000D03*
%TD*%
D12*
%TO.C,R4*%
X241400000Y-172908363D03*
X241400000Y-171258363D03*
%TD*%
%TO.C,R6*%
X313100000Y-116125000D03*
X313100000Y-114475000D03*
%TD*%
D18*
%TO.C,R102*%
X286500000Y-172275000D03*
X286500000Y-173925000D03*
%TD*%
D35*
%TO.C,FB1*%
X239641421Y-162441421D03*
X238138819Y-160938819D03*
%TD*%
D32*
%TO.C,Q43*%
X75275000Y-171450000D03*
X75275000Y-169550000D03*
X73400000Y-170500000D03*
%TD*%
D11*
%TO.C,R35*%
X277075000Y-92700000D03*
X278725000Y-92700000D03*
%TD*%
D36*
%TO.C,C5*%
X251651992Y-155348008D03*
X252748008Y-154251992D03*
%TD*%
D34*
%TO.C,Q35*%
X183762500Y-44550000D03*
X183762500Y-46450000D03*
X185637500Y-45500000D03*
%TD*%
D37*
%TO.C,F5*%
X219500000Y-86900000D03*
X219500000Y-84100000D03*
%TD*%
D23*
%TO.C,C12*%
X261593750Y-149175000D03*
X261593750Y-147625000D03*
%TD*%
%TO.C,C33*%
X313500000Y-53275000D03*
X313500000Y-51725000D03*
%TD*%
D11*
%TO.C,R135*%
X226775000Y-167000000D03*
X228425000Y-167000000D03*
%TD*%
D23*
%TO.C,C57*%
X143000000Y-171475000D03*
X143000000Y-169925000D03*
%TD*%
D18*
%TO.C,R132*%
X111400000Y-169875000D03*
X111400000Y-171525000D03*
%TD*%
%TO.C,R50*%
X133900000Y-92475000D03*
X133900000Y-94125000D03*
%TD*%
D25*
%TO.C,R113*%
X67525000Y-51700000D03*
X65875000Y-51700000D03*
%TD*%
D32*
%TO.C,Q41*%
X135337500Y-171450000D03*
X135337500Y-169550000D03*
X133462500Y-170500000D03*
%TD*%
D18*
%TO.C,R10*%
X245900000Y-147875000D03*
X245900000Y-149525000D03*
%TD*%
D11*
%TO.C,R61*%
X226775000Y-160600000D03*
X228425000Y-160600000D03*
%TD*%
%TO.C,R112*%
X95875000Y-50100000D03*
X97525000Y-50100000D03*
%TD*%
D38*
%TO.C,F13*%
X310637500Y-80500000D03*
X306362500Y-80500000D03*
%TD*%
D39*
%TO.C,U5*%
X263618750Y-152395000D03*
X263618750Y-153665000D03*
X263618750Y-154935000D03*
X263618750Y-156205000D03*
X268568750Y-156205000D03*
X268568750Y-154935000D03*
X268568750Y-153665000D03*
X268568750Y-152395000D03*
%TD*%
D18*
%TO.C,R69*%
X325900000Y-92475000D03*
X325900000Y-94125000D03*
%TD*%
D13*
%TO.C,D23*%
X121500000Y-46350000D03*
X121500000Y-43050000D03*
%TD*%
D18*
%TO.C,R101*%
X289700000Y-172275000D03*
X289700000Y-173925000D03*
%TD*%
D12*
%TO.C,R47*%
X188700000Y-95925000D03*
X188700000Y-94275000D03*
%TD*%
D18*
%TO.C,R39*%
X302500000Y-153175000D03*
X302500000Y-154825000D03*
%TD*%
D25*
%TO.C,R62*%
X68825000Y-151800000D03*
X67175000Y-151800000D03*
%TD*%
D26*
%TO.C,Q22*%
X321300000Y-95700000D03*
D27*
X319000000Y-102000000D03*
D26*
X319000000Y-95700000D03*
X316700000Y-95700000D03*
%TD*%
D18*
%TO.C,R41*%
X299000000Y-153175000D03*
X299000000Y-154825000D03*
%TD*%
D25*
%TO.C,R91*%
X217525000Y-51700000D03*
X215875000Y-51700000D03*
%TD*%
D17*
%TO.C,U15*%
X130350000Y-95237500D03*
X131300000Y-95237500D03*
X132250000Y-95237500D03*
X132250000Y-92962500D03*
X130350000Y-92962500D03*
%TD*%
%TO.C,U12*%
X100350000Y-95237500D03*
X101300000Y-95237500D03*
X102250000Y-95237500D03*
X102250000Y-92962500D03*
X100350000Y-92962500D03*
%TD*%
D23*
%TO.C,C58*%
X113000000Y-171475000D03*
X113000000Y-169925000D03*
%TD*%
D18*
%TO.C,R24*%
X283900000Y-92475000D03*
X283900000Y-94125000D03*
%TD*%
D34*
%TO.C,Q34*%
X213762500Y-44550000D03*
X213762500Y-46450000D03*
X215637500Y-45500000D03*
%TD*%
D40*
%TO.C,D10*%
X292250000Y-108300000D03*
X288750000Y-108300000D03*
%TD*%
D41*
%TO.C,C9*%
X240738128Y-161138128D03*
X239642112Y-160042112D03*
%TD*%
D12*
%TO.C,R8*%
X362000000Y-114325000D03*
X362000000Y-112675000D03*
%TD*%
D23*
%TO.C,C41*%
X297700000Y-173875000D03*
X297700000Y-172325000D03*
%TD*%
D42*
%TO.C,C3*%
X246748008Y-171851992D03*
X245651992Y-172948008D03*
%TD*%
D11*
%TO.C,R138*%
X226775000Y-162200000D03*
X228425000Y-162200000D03*
%TD*%
D15*
%TO.C,Q31*%
X96650000Y-145737500D03*
X98550000Y-145737500D03*
X97600000Y-143862500D03*
%TD*%
D23*
%TO.C,C56*%
X173000000Y-171475000D03*
X173000000Y-169925000D03*
%TD*%
D24*
%TO.C,Q4*%
X253650000Y-109562500D03*
X251750000Y-109562500D03*
X252700000Y-111437500D03*
%TD*%
D40*
%TO.C,D11*%
X232250000Y-108300000D03*
X228750000Y-108300000D03*
%TD*%
D11*
%TO.C,R137*%
X226775000Y-163800000D03*
X228425000Y-163800000D03*
%TD*%
D13*
%TO.C,D24*%
X91500000Y-46350000D03*
X91500000Y-43050000D03*
%TD*%
D18*
%TO.C,R99*%
X296100000Y-172275000D03*
X296100000Y-173925000D03*
%TD*%
D30*
%TO.C,U26*%
X123837500Y-50050000D03*
X123837500Y-49100000D03*
X123837500Y-48150000D03*
X121562500Y-48150000D03*
X121562500Y-50050000D03*
%TD*%
D43*
%TO.C,F3*%
X326300000Y-157900000D03*
X329100000Y-157900000D03*
%TD*%
D12*
%TO.C,R49*%
X128700000Y-95925000D03*
X128700000Y-94275000D03*
%TD*%
D15*
%TO.C,Q7*%
X276750000Y-90837500D03*
X278650000Y-90837500D03*
X277700000Y-88962500D03*
%TD*%
D24*
%TO.C,Q10*%
X162250000Y-88962500D03*
X160350000Y-88962500D03*
X161300000Y-90837500D03*
%TD*%
D25*
%TO.C,R85*%
X215325000Y-42900000D03*
X213675000Y-42900000D03*
%TD*%
D41*
%TO.C,C8*%
X240789088Y-151867768D03*
X239693072Y-150771752D03*
%TD*%
D15*
%TO.C,Q25*%
X66650000Y-145737500D03*
X68550000Y-145737500D03*
X67600000Y-143862500D03*
%TD*%
D13*
%TO.C,D26*%
X167600000Y-169650000D03*
X167600000Y-172950000D03*
%TD*%
D40*
%TO.C,D14*%
X262250000Y-108300000D03*
X258750000Y-108300000D03*
%TD*%
D37*
%TO.C,F11*%
X69500000Y-86900000D03*
X69500000Y-84100000D03*
%TD*%
D17*
%TO.C,U20*%
X100450000Y-150137500D03*
X101400000Y-150137500D03*
X102350000Y-150137500D03*
X102350000Y-147862500D03*
X100450000Y-147862500D03*
%TD*%
D11*
%TO.C,R64*%
X66775000Y-147600000D03*
X68425000Y-147600000D03*
%TD*%
D12*
%TO.C,R98*%
X286500000Y-170525000D03*
X286500000Y-168875000D03*
%TD*%
D18*
%TO.C,R42*%
X298800000Y-162750000D03*
X298800000Y-164400000D03*
%TD*%
D31*
%TO.C,C7*%
X259500000Y-163225000D03*
X259500000Y-164775000D03*
%TD*%
D12*
%TO.C,R116*%
X280100000Y-170525000D03*
X280100000Y-168875000D03*
%TD*%
D31*
%TO.C,C23*%
X97100000Y-94525000D03*
X97100000Y-96075000D03*
%TD*%
D34*
%TO.C,Q38*%
X93762500Y-44550000D03*
X93762500Y-46450000D03*
X95637500Y-45500000D03*
%TD*%
D31*
%TO.C,C22*%
X157100000Y-94525000D03*
X157100000Y-96075000D03*
%TD*%
D37*
%TO.C,F12*%
X69500000Y-141800000D03*
X69500000Y-139000000D03*
%TD*%
D33*
%TO.C,C39*%
X106000000Y-146050000D03*
X106000000Y-147950000D03*
%TD*%
D37*
%TO.C,F15*%
X99500000Y-141800000D03*
X99500000Y-139000000D03*
%TD*%
D42*
%TO.C,C4*%
X242148008Y-167251992D03*
X241051992Y-168348008D03*
%TD*%
D18*
%TO.C,R122*%
X273700000Y-172275000D03*
X273700000Y-173925000D03*
%TD*%
D12*
%TO.C,R129*%
X139800000Y-171525000D03*
X139800000Y-169875000D03*
%TD*%
D16*
%TO.C,C37*%
X301925000Y-175300000D03*
X303475000Y-175300000D03*
%TD*%
D37*
%TO.C,F10*%
X129500000Y-86900000D03*
X129500000Y-84100000D03*
%TD*%
D16*
%TO.C,C34*%
X316725000Y-92100000D03*
X318275000Y-92100000D03*
%TD*%
D18*
%TO.C,R70*%
X325900000Y-57475000D03*
X325900000Y-59125000D03*
%TD*%
D21*
%TO.C,U7*%
X319887500Y-174400000D03*
X319887500Y-172100000D03*
D22*
X313587500Y-172100000D03*
D21*
X319887500Y-169800000D03*
%TD*%
D44*
%TO.C,L1*%
X271818750Y-147775000D03*
X271818750Y-149035000D03*
X276368750Y-149035000D03*
X276368750Y-147765000D03*
%TD*%
D11*
%TO.C,R75*%
X311675000Y-85000000D03*
X313325000Y-85000000D03*
%TD*%
D25*
%TO.C,R12*%
X220125000Y-111500000D03*
X218475000Y-111500000D03*
%TD*%
D16*
%TO.C,C42*%
X241725000Y-51700000D03*
X243275000Y-51700000D03*
%TD*%
D45*
%TO.C,FB2*%
X322125000Y-169700000D03*
X324250000Y-169700000D03*
%TD*%
D24*
%TO.C,Q6*%
X282250000Y-88962500D03*
X280350000Y-88962500D03*
X281300000Y-90837500D03*
%TD*%
D12*
%TO.C,R115*%
X283300000Y-170525000D03*
X283300000Y-168875000D03*
%TD*%
D33*
%TO.C,C6*%
X249200000Y-172250000D03*
X249200000Y-174150000D03*
%TD*%
D18*
%TO.C,R100*%
X292900000Y-172275000D03*
X292900000Y-173925000D03*
%TD*%
D25*
%TO.C,R68*%
X303525000Y-172100000D03*
X301875000Y-172100000D03*
%TD*%
%TO.C,R63*%
X68825000Y-150200000D03*
X67175000Y-150200000D03*
%TD*%
D18*
%TO.C,R55*%
X125500000Y-92675000D03*
X125500000Y-94325000D03*
%TD*%
D24*
%TO.C,Q24*%
X72350000Y-143862500D03*
X70450000Y-143862500D03*
X71400000Y-145737500D03*
%TD*%
D12*
%TO.C,R29*%
X98700000Y-95925000D03*
X98700000Y-94275000D03*
%TD*%
D25*
%TO.C,R103*%
X155325000Y-42900000D03*
X153675000Y-42900000D03*
%TD*%
D18*
%TO.C,R17*%
X304250000Y-153175000D03*
X304250000Y-154825000D03*
%TD*%
D46*
%TO.C,R3*%
X239357717Y-155703123D03*
X240524443Y-154536397D03*
%TD*%
D11*
%TO.C,R110*%
X125875000Y-50100000D03*
X127525000Y-50100000D03*
%TD*%
D31*
%TO.C,C30*%
X74000000Y-146025000D03*
X74000000Y-147575000D03*
%TD*%
D47*
%TO.C,D2*%
X241400000Y-176537500D03*
X241400000Y-174662500D03*
%TD*%
D16*
%TO.C,C14*%
X317225000Y-128000000D03*
X318775000Y-128000000D03*
%TD*%
D18*
%TO.C,R66*%
X327500000Y-60875000D03*
X327500000Y-62525000D03*
%TD*%
D11*
%TO.C,R60*%
X67075000Y-92700000D03*
X68725000Y-92700000D03*
%TD*%
D15*
%TO.C,Q17*%
X186750000Y-90837500D03*
X188650000Y-90837500D03*
X187700000Y-88962500D03*
%TD*%
D48*
%TO.C,C17*%
X323275000Y-155700000D03*
X321725000Y-155700000D03*
%TD*%
D18*
%TO.C,R14*%
X244300000Y-147875000D03*
X244300000Y-149525000D03*
%TD*%
D11*
%TO.C,R126*%
X73712500Y-173100000D03*
X75362500Y-173100000D03*
%TD*%
D49*
%TO.C,C15*%
X321500000Y-120500000D03*
X321500000Y-126100000D03*
%TD*%
D16*
%TO.C,C62*%
X230225000Y-163800000D03*
X231775000Y-163800000D03*
%TD*%
D25*
%TO.C,R78*%
X98825000Y-151800000D03*
X97175000Y-151800000D03*
%TD*%
D31*
%TO.C,C20*%
X277100000Y-94525000D03*
X277100000Y-96075000D03*
%TD*%
D47*
%TO.C,D1*%
X239400000Y-176537500D03*
X239400000Y-174662500D03*
%TD*%
D50*
%TO.C,C2*%
X257442112Y-166042112D03*
X258538128Y-167138128D03*
%TD*%
D37*
%TO.C,F8*%
X249500000Y-86900000D03*
X249500000Y-84100000D03*
%TD*%
D24*
%TO.C,Q30*%
X102350000Y-143862500D03*
X100450000Y-143862500D03*
X101400000Y-145737500D03*
%TD*%
D18*
%TO.C,R119*%
X283300000Y-172275000D03*
X283300000Y-173925000D03*
%TD*%
D12*
%TO.C,R117*%
X276900000Y-170525000D03*
X276900000Y-168875000D03*
%TD*%
D31*
%TO.C,C27*%
X67100000Y-94525000D03*
X67100000Y-96075000D03*
%TD*%
%TO.C,C38*%
X104000000Y-146025000D03*
X104000000Y-147575000D03*
%TD*%
D11*
%TO.C,R58*%
X187075000Y-92700000D03*
X188725000Y-92700000D03*
%TD*%
D23*
%TO.C,C55*%
X275300000Y-173875000D03*
X275300000Y-172325000D03*
%TD*%
D41*
%TO.C,C11*%
X241838128Y-160038128D03*
X240742112Y-158942112D03*
%TD*%
D23*
%TO.C,C51*%
X281700000Y-173875000D03*
X281700000Y-172325000D03*
%TD*%
D24*
%TO.C,U2*%
X263450000Y-165062500D03*
X261550000Y-165062500D03*
X262500000Y-166937500D03*
%TD*%
%TO.C,Q8*%
X222250000Y-88962500D03*
X220350000Y-88962500D03*
X221300000Y-90837500D03*
%TD*%
D38*
%TO.C,F14*%
X310637500Y-45500000D03*
X306362500Y-45500000D03*
%TD*%
D15*
%TO.C,Q21*%
X66750000Y-90837500D03*
X68650000Y-90837500D03*
X67700000Y-88962500D03*
%TD*%
D16*
%TO.C,C44*%
X211725000Y-51700000D03*
X213275000Y-51700000D03*
%TD*%
D18*
%TO.C,R20*%
X300600000Y-162775000D03*
X300600000Y-164425000D03*
%TD*%
D24*
%TO.C,Q2*%
X283650000Y-109562500D03*
X281750000Y-109562500D03*
X282700000Y-111437500D03*
%TD*%
D17*
%TO.C,U9*%
X280350000Y-95237500D03*
X281300000Y-95237500D03*
X282250000Y-95237500D03*
X282250000Y-92962500D03*
X280350000Y-92962500D03*
%TD*%
D18*
%TO.C,R56*%
X65500000Y-92675000D03*
X65500000Y-94325000D03*
%TD*%
D12*
%TO.C,R2*%
X239400000Y-172908363D03*
X239400000Y-171258363D03*
%TD*%
D17*
%TO.C,U17*%
X70450000Y-150137500D03*
X71400000Y-150137500D03*
X72350000Y-150137500D03*
X72350000Y-147862500D03*
X70450000Y-147862500D03*
%TD*%
D25*
%TO.C,R83*%
X275325000Y-42900000D03*
X273675000Y-42900000D03*
%TD*%
D15*
%TO.C,Q19*%
X126750000Y-90837500D03*
X128650000Y-90837500D03*
X127700000Y-88962500D03*
%TD*%
D25*
%TO.C,R67*%
X303525000Y-173700000D03*
X301875000Y-173700000D03*
%TD*%
D16*
%TO.C,C50*%
X121725000Y-51700000D03*
X123275000Y-51700000D03*
%TD*%
D51*
%TO.C,J42*%
X359000000Y-80000000D03*
X359000000Y-83000000D03*
X359000000Y-86000000D03*
X359000000Y-89000000D03*
X359000000Y-92000000D03*
X359000000Y-95000000D03*
X359000000Y-98000000D03*
X359000000Y-101000000D03*
X359000000Y-104000000D03*
X359000000Y-107000000D03*
%TD*%
D11*
%TO.C,R124*%
X133775000Y-173100000D03*
X135425000Y-173100000D03*
%TD*%
D48*
%TO.C,C16*%
X319762500Y-167500000D03*
X318212500Y-167500000D03*
%TD*%
D14*
%TO.C,Q1*%
X316805000Y-120825000D03*
X315535000Y-120825000D03*
X314265000Y-120825000D03*
X312995000Y-120825000D03*
X312995000Y-125775000D03*
X314265000Y-125775000D03*
X315535000Y-125775000D03*
X316805000Y-125775000D03*
%TD*%
D25*
%TO.C,R89*%
X247525000Y-51700000D03*
X245875000Y-51700000D03*
%TD*%
D18*
%TO.C,R121*%
X276900000Y-172275000D03*
X276900000Y-173925000D03*
%TD*%
D25*
%TO.C,R86*%
X185325000Y-42900000D03*
X183675000Y-42900000D03*
%TD*%
D37*
%TO.C,F4*%
X279500000Y-86900000D03*
X279500000Y-84100000D03*
%TD*%
D12*
%TO.C,R5*%
X270593750Y-155125000D03*
X270593750Y-153475000D03*
%TD*%
D23*
%TO.C,C53*%
X278500000Y-173875000D03*
X278500000Y-172325000D03*
%TD*%
D24*
%TO.C,Q12*%
X102250000Y-88962500D03*
X100350000Y-88962500D03*
X101300000Y-90837500D03*
%TD*%
D18*
%TO.C,R128*%
X171400000Y-169875000D03*
X171400000Y-171525000D03*
%TD*%
D30*
%TO.C,U25*%
X153837500Y-50050000D03*
X153837500Y-49100000D03*
X153837500Y-48150000D03*
X151562500Y-48150000D03*
X151562500Y-50050000D03*
%TD*%
D23*
%TO.C,C13*%
X261593750Y-155075000D03*
X261593750Y-153525000D03*
%TD*%
D18*
%TO.C,R134*%
X81337500Y-169875000D03*
X81337500Y-171525000D03*
%TD*%
D20*
%TO.C,U31*%
X110262500Y-173350000D03*
X110262500Y-174300000D03*
X110262500Y-175250000D03*
X112537500Y-175250000D03*
X112537500Y-173350000D03*
%TD*%
D25*
%TO.C,R109*%
X127525000Y-51700000D03*
X125875000Y-51700000D03*
%TD*%
D18*
%TO.C,R21*%
X297250000Y-153175000D03*
X297250000Y-154825000D03*
%TD*%
D20*
%TO.C,U29*%
X170262500Y-173350000D03*
X170262500Y-174300000D03*
X170262500Y-175250000D03*
X172537500Y-175250000D03*
X172537500Y-173350000D03*
%TD*%
D25*
%TO.C,R111*%
X97525000Y-51700000D03*
X95875000Y-51700000D03*
%TD*%
D13*
%TO.C,D18*%
X271500000Y-46350000D03*
X271500000Y-43050000D03*
%TD*%
D18*
%TO.C,R33*%
X155500000Y-92675000D03*
X155500000Y-94325000D03*
%TD*%
D13*
%TO.C,D29*%
X77537500Y-169650000D03*
X77537500Y-172950000D03*
%TD*%
D12*
%TO.C,R118*%
X273700000Y-170525000D03*
X273700000Y-168875000D03*
%TD*%
D34*
%TO.C,Q39*%
X63762500Y-44550000D03*
X63762500Y-46450000D03*
X65637500Y-45500000D03*
%TD*%
%TO.C,D4*%
X279456250Y-147450000D03*
X279456250Y-149350000D03*
X281331250Y-148400000D03*
%TD*%
D25*
%TO.C,R107*%
X157525000Y-51700000D03*
X155875000Y-51700000D03*
%TD*%
D11*
%TO.C,R88*%
X275875000Y-50100000D03*
X277525000Y-50100000D03*
%TD*%
D34*
%TO.C,Q26*%
X322162500Y-91350000D03*
X322162500Y-93250000D03*
X324037500Y-92300000D03*
%TD*%
D18*
%TO.C,R28*%
X163900000Y-92475000D03*
X163900000Y-94125000D03*
%TD*%
D25*
%TO.C,R15*%
X250125000Y-111500000D03*
X248475000Y-111500000D03*
%TD*%
D11*
%TO.C,R77*%
X226775000Y-159000000D03*
X228425000Y-159000000D03*
%TD*%
D12*
%TO.C,R27*%
X158700000Y-95925000D03*
X158700000Y-94275000D03*
%TD*%
D23*
%TO.C,C49*%
X284900000Y-173875000D03*
X284900000Y-172325000D03*
%TD*%
D11*
%TO.C,R71*%
X311675000Y-90000000D03*
X313325000Y-90000000D03*
%TD*%
D18*
%TO.C,R46*%
X253900000Y-92475000D03*
X253900000Y-94125000D03*
%TD*%
%TO.C,R54*%
X185500000Y-92675000D03*
X185500000Y-94325000D03*
%TD*%
%TO.C,R26*%
X223900000Y-92475000D03*
X223900000Y-94125000D03*
%TD*%
D12*
%TO.C,R95*%
X296100000Y-170525000D03*
X296100000Y-168875000D03*
%TD*%
D24*
%TO.C,Q14*%
X252250000Y-88962500D03*
X250350000Y-88962500D03*
X251300000Y-90837500D03*
%TD*%
D18*
%TO.C,R22*%
X293750000Y-153175000D03*
X293750000Y-154825000D03*
%TD*%
D30*
%TO.C,U21*%
X273837500Y-50050000D03*
X273837500Y-49100000D03*
X273837500Y-48150000D03*
X271562500Y-48150000D03*
X271562500Y-50050000D03*
%TD*%
D18*
%TO.C,R43*%
X295500000Y-153175000D03*
X295500000Y-154825000D03*
%TD*%
D16*
%TO.C,C52*%
X91725000Y-51700000D03*
X93275000Y-51700000D03*
%TD*%
D15*
%TO.C,Q9*%
X216750000Y-90837500D03*
X218650000Y-90837500D03*
X217700000Y-88962500D03*
%TD*%
D13*
%TO.C,D17*%
X323900000Y-64150000D03*
X323900000Y-60850000D03*
%TD*%
%TO.C,D28*%
X107600000Y-169650000D03*
X107600000Y-172950000D03*
%TD*%
D16*
%TO.C,C48*%
X151725000Y-51700000D03*
X153275000Y-51700000D03*
%TD*%
D18*
%TO.C,R48*%
X193900000Y-92475000D03*
X193900000Y-94125000D03*
%TD*%
%TO.C,R1*%
X251600000Y-147875000D03*
X251600000Y-149525000D03*
%TD*%
D25*
%TO.C,R11*%
X280125000Y-111500000D03*
X278475000Y-111500000D03*
%TD*%
D30*
%TO.C,U28*%
X63837500Y-50050000D03*
X63837500Y-49100000D03*
X63837500Y-48150000D03*
X61562500Y-48150000D03*
X61562500Y-50050000D03*
%TD*%
D52*
%TO.C,C1*%
X250150000Y-153800000D03*
X248250000Y-153800000D03*
%TD*%
D11*
%TO.C,R81*%
X301875000Y-176900000D03*
X303525000Y-176900000D03*
%TD*%
%TO.C,R90*%
X245875000Y-50100000D03*
X247525000Y-50100000D03*
%TD*%
D24*
%TO.C,Q16*%
X192250000Y-88962500D03*
X190350000Y-88962500D03*
X191300000Y-90837500D03*
%TD*%
D16*
%TO.C,C36*%
X301925000Y-178500000D03*
X303475000Y-178500000D03*
%TD*%
D11*
%TO.C,R72*%
X311587500Y-55000000D03*
X313237500Y-55000000D03*
%TD*%
D18*
%TO.C,R32*%
X215500000Y-92675000D03*
X215500000Y-94325000D03*
%TD*%
D50*
%TO.C,C10*%
X235593072Y-154871752D03*
X236689088Y-155967768D03*
%TD*%
D37*
%TO.C,F6*%
X159500000Y-86900000D03*
X159500000Y-84100000D03*
%TD*%
D13*
%TO.C,D22*%
X151500000Y-46350000D03*
X151500000Y-43050000D03*
%TD*%
D10*
%TO.C,C18*%
X313800000Y-176900000D03*
X315700000Y-176900000D03*
%TD*%
D12*
%TO.C,R97*%
X289700000Y-170525000D03*
X289700000Y-168875000D03*
%TD*%
D34*
%TO.C,Q32*%
X273762500Y-44550000D03*
X273762500Y-46450000D03*
X275637500Y-45500000D03*
%TD*%
D25*
%TO.C,R106*%
X65325000Y-42900000D03*
X63675000Y-42900000D03*
%TD*%
D11*
%TO.C,R76*%
X311587500Y-50000000D03*
X313237500Y-50000000D03*
%TD*%
%TO.C,R92*%
X215875000Y-50100000D03*
X217525000Y-50100000D03*
%TD*%
D25*
%TO.C,R105*%
X95325000Y-42900000D03*
X93675000Y-42900000D03*
%TD*%
D18*
%TO.C,R53*%
X245500000Y-92675000D03*
X245500000Y-94325000D03*
%TD*%
D20*
%TO.C,U32*%
X80200000Y-173350000D03*
X80200000Y-174300000D03*
X80200000Y-175250000D03*
X82475000Y-175250000D03*
X82475000Y-173350000D03*
%TD*%
D40*
%TO.C,D15*%
X202250000Y-108300000D03*
X198750000Y-108300000D03*
%TD*%
D23*
%TO.C,C43*%
X294500000Y-173875000D03*
X294500000Y-172325000D03*
%TD*%
D30*
%TO.C,U23*%
X213837500Y-50050000D03*
X213837500Y-49100000D03*
X213837500Y-48150000D03*
X211562500Y-48150000D03*
X211562500Y-50050000D03*
%TD*%
D34*
%TO.C,Q37*%
X123762500Y-44550000D03*
X123762500Y-46450000D03*
X125637500Y-45500000D03*
%TD*%
D25*
%TO.C,R104*%
X125325000Y-42900000D03*
X123675000Y-42900000D03*
%TD*%
D30*
%TO.C,U27*%
X93837500Y-50050000D03*
X93837500Y-49100000D03*
X93837500Y-48150000D03*
X91562500Y-48150000D03*
X91562500Y-50050000D03*
%TD*%
D18*
%TO.C,R19*%
X300750000Y-153175000D03*
X300750000Y-154825000D03*
%TD*%
D12*
%TO.C,R45*%
X248700000Y-95925000D03*
X248700000Y-94275000D03*
%TD*%
D11*
%TO.C,R57*%
X247075000Y-92700000D03*
X248725000Y-92700000D03*
%TD*%
D53*
%TO.C,U1*%
X247838819Y-156935519D03*
X247485266Y-157289072D03*
X247131713Y-157642625D03*
X246778159Y-157996179D03*
X246424606Y-158349732D03*
X246071052Y-158703286D03*
X245717499Y-159056839D03*
X245363946Y-159410392D03*
X245010392Y-159763946D03*
X244656839Y-160117499D03*
X244303286Y-160471052D03*
X243949732Y-160824606D03*
X243596179Y-161178159D03*
X243242625Y-161531713D03*
X242889072Y-161885266D03*
X242535519Y-162238819D03*
D54*
X242535519Y-164961181D03*
X242889072Y-165314734D03*
X243242625Y-165668287D03*
X243596179Y-166021841D03*
X243949732Y-166375394D03*
X244303286Y-166728948D03*
X244656839Y-167082501D03*
X245010392Y-167436054D03*
X245363946Y-167789608D03*
X245717499Y-168143161D03*
X246071052Y-168496714D03*
X246424606Y-168850268D03*
X246778159Y-169203821D03*
X247131713Y-169557375D03*
X247485266Y-169910928D03*
X247838819Y-170264481D03*
D53*
X250561181Y-170264481D03*
X250914734Y-169910928D03*
X251268287Y-169557375D03*
X251621841Y-169203821D03*
X251975394Y-168850268D03*
X252328948Y-168496714D03*
X252682501Y-168143161D03*
X253036054Y-167789608D03*
X253389608Y-167436054D03*
X253743161Y-167082501D03*
X254096714Y-166728948D03*
X254450268Y-166375394D03*
X254803821Y-166021841D03*
X255157375Y-165668287D03*
X255510928Y-165314734D03*
X255864481Y-164961181D03*
D54*
X255864481Y-162238819D03*
X255510928Y-161885266D03*
X255157375Y-161531713D03*
X254803821Y-161178159D03*
X254450268Y-160824606D03*
X254096714Y-160471052D03*
X253743161Y-160117499D03*
X253389608Y-159763946D03*
X253036054Y-159410392D03*
X252682501Y-159056839D03*
X252328948Y-158703286D03*
X251975394Y-158349732D03*
X251621841Y-157996179D03*
X251268287Y-157642625D03*
X250914734Y-157289072D03*
X250561181Y-156935519D03*
%TD*%
D55*
%TO.C,D6*%
X316350000Y-118300000D03*
X313050000Y-118300000D03*
%TD*%
D37*
%TO.C,F7*%
X99500000Y-86900000D03*
X99500000Y-84100000D03*
%TD*%
D17*
%TO.C,U13*%
X250350000Y-95237500D03*
X251300000Y-95237500D03*
X252250000Y-95237500D03*
X252250000Y-92962500D03*
X250350000Y-92962500D03*
%TD*%
D16*
%TO.C,C46*%
X181725000Y-51700000D03*
X183275000Y-51700000D03*
%TD*%
D26*
%TO.C,Q28*%
X313800000Y-95700000D03*
X311500000Y-95700000D03*
D27*
X311500000Y-102000000D03*
D26*
X309200000Y-95700000D03*
%TD*%
D24*
%TO.C,Q5*%
X193650000Y-109562500D03*
X191750000Y-109562500D03*
X192700000Y-111437500D03*
%TD*%
D23*
%TO.C,C28*%
X325900000Y-97475000D03*
X325900000Y-95925000D03*
%TD*%
D31*
%TO.C,C24*%
X247100000Y-94525000D03*
X247100000Y-96075000D03*
%TD*%
D12*
%TO.C,R127*%
X169800000Y-171525000D03*
X169800000Y-169875000D03*
%TD*%
D17*
%TO.C,U16*%
X70350000Y-95237500D03*
X71300000Y-95237500D03*
X72250000Y-95237500D03*
X72250000Y-92962500D03*
X70350000Y-92962500D03*
%TD*%
D34*
%TO.C,Q36*%
X153762500Y-44550000D03*
X153762500Y-46450000D03*
X155637500Y-45500000D03*
%TD*%
D37*
%TO.C,F9*%
X189500000Y-86900000D03*
X189500000Y-84100000D03*
%TD*%
D43*
%TO.C,F2*%
X326300000Y-169700000D03*
X329100000Y-169700000D03*
%TD*%
D34*
%TO.C,D3*%
X272456250Y-153350000D03*
X272456250Y-155250000D03*
X274331250Y-154300000D03*
%TD*%
D17*
%TO.C,U10*%
X220350000Y-95237500D03*
X221300000Y-95237500D03*
X222250000Y-95237500D03*
X222250000Y-92962500D03*
X220350000Y-92962500D03*
%TD*%
D56*
%TO.C,D5*%
X321800000Y-135500000D03*
X327200000Y-135500000D03*
%TD*%
D13*
%TO.C,D21*%
X181500000Y-46350000D03*
X181500000Y-43050000D03*
%TD*%
D16*
%TO.C,C40*%
X271725000Y-51700000D03*
X273275000Y-51700000D03*
%TD*%
D24*
%TO.C,Q18*%
X132250000Y-88962500D03*
X130350000Y-88962500D03*
X131300000Y-90837500D03*
%TD*%
D13*
%TO.C,D16*%
X323900000Y-99150000D03*
X323900000Y-95850000D03*
%TD*%
D39*
%TO.C,U4*%
X263618750Y-146495000D03*
X263618750Y-147765000D03*
X263618750Y-149035000D03*
X263618750Y-150305000D03*
X268568750Y-150305000D03*
X268568750Y-149035000D03*
X268568750Y-147765000D03*
X268568750Y-146495000D03*
%TD*%
D25*
%TO.C,R87*%
X277525000Y-51700000D03*
X275875000Y-51700000D03*
%TD*%
D18*
%TO.C,R18*%
X304200000Y-162775000D03*
X304200000Y-164425000D03*
%TD*%
%TO.C,R120*%
X280100000Y-172275000D03*
X280100000Y-173925000D03*
%TD*%
D20*
%TO.C,U3*%
X226062500Y-152850000D03*
X226062500Y-153800000D03*
X226062500Y-154750000D03*
X228337500Y-154750000D03*
X228337500Y-153800000D03*
X228337500Y-152850000D03*
%TD*%
D30*
%TO.C,U24*%
X183837500Y-50050000D03*
X183837500Y-49100000D03*
X183837500Y-48150000D03*
X181562500Y-48150000D03*
X181562500Y-50050000D03*
%TD*%
D11*
%TO.C,R114*%
X65875000Y-50100000D03*
X67525000Y-50100000D03*
%TD*%
D31*
%TO.C,C26*%
X127100000Y-94525000D03*
X127100000Y-96075000D03*
%TD*%
D23*
%TO.C,C45*%
X291300000Y-173875000D03*
X291300000Y-172325000D03*
%TD*%
D12*
%TO.C,R96*%
X292900000Y-170525000D03*
X292900000Y-168875000D03*
%TD*%
M02*
